<svg xmlns="http://www.w3.org/2000/svg" width="1.4in" height="1.4in" viewBox="0 0 100 100"><path d="M57.3 54.6a7.3 7.3 0 1 1-7.3-7.3 7.3 7.3 0 0 1 7.3 7.3zM79 52.1l-.2.2c-.5.8-12.4 20.2-28.8 20.2S21.7 53.1 21.2 52.3l-.2-.2a14.4 14.4 0 0 1 .2-9.9c1.9-4.7 6.3-8.4 13.1-11.1a42.7 42.7 0 0 1 15.6-3.6h.2a42.7 42.7 0 0 1 15.6 3.6c6.8 2.7 11.2 6.4 13.1 11.1a14.4 14.4 0 0 1 .2 9.9zm-7.7 3.7l-4.5-2.4a5.6 5.6 0 0 1-2.3.5 5.3 5.3 0 1 1 5.3-5.8l5.2 2.8a.9.9 0 0 0 .3-.5 9.3 9.3 0 0 0-.2-6.7c-1.6-3.6-5.2-6.6-10.8-8.9A37.7 37.7 0 0 0 50 31.5a38.1 38.1 0 0 0-14.3 3.3c-5.6 2.3-9.2 5.3-10.8 8.8a9.5 9.5 0 0 0-.2 6.8.9.9 0 0 0 .3.5l5.2-2.8a5.3 5.3 0 1 1 5.3 5.8 4.4 4.4 0 0 1-2.3-.6l-4.5 2.5C33.2 61.1 41 68.5 50 68.5s16.8-7.4 21.3-12.7z"/></svg>